<svg width="122" height="105" viewBox="0 0 122 105" fill="none" xmlns="http://www.w3.org/2000/svg">
<path d="M121.022 55.1326H1.38263V58.0969H121.022V55.1326Z" fill="#302A9C"/>
<path d="M117.856 58.097H4.54065V89.2772H117.856V58.097Z" fill="#FFBE1C"/>
<path d="M61.1985 26.9267L35.6901 35.8297V89.2771H86.7068V35.8297L61.1985 26.9267Z" fill="#478BFF"/>
<path d="M61.1985 26.9267L35.6901 35.8297V89.2771H86.7068V35.8297L61.1985 26.9267Z" fill="#3882FF"/>
<path d="M48.9037 2.41882H60.8998V6.34484V10.261H52.0304L48.9037 2.41882Z" fill="#3882FF"/>
<path d="M60.4991 21.9399C60.4991 22.2175 60.8134 22.4356 61.1983 22.4356C61.5833 22.4356 61.8975 22.2175 61.8975 21.9399V0.941572C61.8975 0.663974 61.5833 0.445862 61.1983 0.445862C60.8134 0.445862 60.4991 0.663974 60.4991 0.941572V21.9399Z" fill="#302A9C"/>
<path d="M61.1983 17.9147L23.3481 32.2605V41.0049L61.1983 26.9862L99.0406 41.0049V32.2605L61.1983 17.9147Z" fill="#FFBE1C"/>
<path d="M86.7068 80.8898H35.6901V89.2772H86.7068V80.8898Z" fill="#302A9C"/>
<path d="M69.439 68.7151H52.9572V89.2771H69.439V68.7151Z" fill="#FFBE1C"/>
<path d="M61.9837 68.7151H60.4047V89.2771H61.9837V68.7151Z" fill="#302A9C"/>
<path d="M65.5582 39.2501H56.8302V48.5694H65.5582V39.2501Z" fill="#FFFCDE"/>
<path d="M50.5456 39.2501H41.8176V48.5694H50.5456V39.2501Z" fill="#FFFCDE"/>
<path d="M80.5791 39.2501H71.8511V48.5694H80.5791V39.2501Z" fill="#FFFCDE"/>
<path d="M65.5582 55.1326H56.8302V64.4519H65.5582V55.1326Z" fill="#FFFCDE"/>
<path d="M50.5456 55.1326H41.8176V64.4519H50.5456V55.1326Z" fill="#FFFCDE"/>
<path d="M80.5791 55.1326H71.8511V64.4519H80.5791V55.1326Z" fill="#FFFCDE"/>
<path d="M121.729 89.2772H0.659973V99.3599H121.729V89.2772Z" fill="#302A9C"/>
<path d="M86.7539 90.6652H35.6427V94.3632H86.7539V90.6652Z" fill="#055FF7"/>
<path d="M86.7539 89.2772H35.6427V90.6652H86.7539V89.2772Z" fill="#FFBE1C"/>
<path d="M99.4965 95.7115H22.9084V99.4095H99.4965V95.7115Z" fill="#055FF7"/>
<path d="M99.4965 94.3235H22.9084V95.7115H99.4965V94.3235Z" fill="#FFBE1C"/>
<path d="M111.539 100.748H10.857V104.446H111.539V100.748Z" fill="#055FF7"/>
<path d="M111.539 99.36H10.857V100.748H111.539V99.36Z" fill="#FFBE1C"/>
<path d="M31.1178 63.292H9.05811V70.7475H31.1178V63.292Z" fill="#FFFCDE"/>
<path d="M21.4544 63.292H18.7127V70.7475H21.4544V63.292Z" fill="#3882FF"/>
<path d="M31.1178 75.1593H9.05811V82.6148H31.1178V75.1593Z" fill="#FFFCDE"/>
<path d="M21.4544 75.1593H18.7127V82.6148H21.4544V75.1593Z" fill="#3882FF"/>
<path d="M113.338 63.292H91.2784V70.7475H113.338V63.292Z" fill="#FFFCDE"/>
<path d="M103.684 63.292H100.942V70.7475H103.684V63.292Z" fill="#3882FF"/>
<path d="M113.338 75.1593H91.2784V82.6148H113.338V75.1593Z" fill="#FFFCDE"/>
<path d="M103.684 75.1593H100.942V82.6148H103.684V75.1593Z" fill="#3882FF"/>
<path opacity="0.2" d="M10.857 104.446H61.1983V17.9147L23.3481 32.2605V41.0049L35.6899 36.4344V55.1326H1.38271V58.097H4.54084V89.2771H0.659973V99.3599H10.857V100.748V104.446Z" fill="white"/>
</svg>
