<svg xmlns="http://www.w3.org/2000/svg" width="52" height="52" fill="none"><mask id="a" width="52" height="52" x="0" y="0" maskUnits="userSpaceOnUse" style="mask-type:alpha"><path fill="#D9D9D9" d="M0 0h52v52H0z"/></mask><g mask="url(#a)"><path fill="#081646" d="M16.784 48.187a5.879 5.879 0 0 1-4.205-1.746l-8.887-8.904c-.356-.355-.54-.8-.55-1.333a1.931 1.931 0 0 1 .516-1.388l.2-.2a3.031 3.031 0 0 1 1.509-.83 3.732 3.732 0 0 1 1.77.03l4.071 1.042V17.333c0-.46.156-.846.468-1.157a1.573 1.573 0 0 1 1.158-.468c.46 0 .847.156 1.158.468.31.31.466.697.466 1.157v19.271c0 .639-.252 1.152-.756 1.54-.504.387-1.076.497-1.714.331l-3.692-.955 6.579 6.621c.272.273.566.473.881.603.315.129.659.193 1.031.193h8.297c1.34 0 2.488-.477 3.442-1.432.955-.954 1.433-2.102 1.433-3.443v-7.77c0-.461.155-.847.467-1.158a1.571 1.571 0 0 1 1.158-.468c.46 0 .846.156 1.158.468.31.311.466.697.466 1.157v7.771c0 2.245-.793 4.16-2.38 5.746-1.585 1.586-3.5 2.379-5.744 2.379h-8.3Zm.674-16.166v-7.063c0-.46.156-.846.468-1.158a1.574 1.574 0 0 1 1.158-.467c.46 0 .847.156 1.157.467.312.312.467.698.467 1.158v7.063c0 .46-.155.846-.467 1.157a1.575 1.575 0 0 1-1.159.468c-.46 0-.846-.156-1.157-.468a1.575 1.575 0 0 1-.467-1.157Zm6.25 0v-4.48c0-.46.156-.846.468-1.157a1.573 1.573 0 0 1 1.158-.468c.46 0 .846.156 1.158.468.31.311.466.697.466 1.157v4.48c0 .46-.156.846-.467 1.157a1.574 1.574 0 0 1-1.158.468 1.57 1.57 0 0 1-1.158-.468 1.573 1.573 0 0 1-.467-1.157Zm11.11-9.355c-2.696 0-5.2-.638-7.514-1.916s-4.192-3.052-5.635-5.323a2.496 2.496 0 0 1-.303-.657 2.697 2.697 0 0 1-.091-.729c0-.267.03-.51.091-.728.062-.217.164-.436.306-.657 1.419-2.27 3.289-4.045 5.61-5.323 2.322-1.278 4.83-1.917 7.525-1.917 2.695 0 5.2.64 7.514 1.917 2.314 1.278 4.192 3.052 5.634 5.323.141.221.242.44.303.657.061.218.092.46.092.728 0 .268-.03.51-.092.729a2.444 2.444 0 0 1-.304.657c-1.42 2.27-3.29 4.045-5.611 5.323-2.322 1.278-4.83 1.916-7.525 1.916Zm-.008-3.25c2.032 0 3.95-.476 5.753-1.428a12.64 12.64 0 0 0 4.479-3.947 12.647 12.647 0 0 0-4.477-3.946 12.12 12.12 0 0 0-5.75-1.429c-2.032 0-3.95.477-5.752 1.43a12.64 12.64 0 0 0-4.48 3.945 12.649 12.649 0 0 0 4.476 3.947 12.12 12.12 0 0 0 5.75 1.428Zm.005-2.666a2.617 2.617 0 0 1-1.92-.79 2.605 2.605 0 0 1-.791-1.916c0-.752.263-1.391.79-1.919a2.605 2.605 0 0 1 1.916-.792c.752 0 1.391.263 1.92.79.527.526.79 1.165.79 1.916 0 .752-.262 1.391-.789 1.919a2.605 2.605 0 0 1-1.916.792Z"/></g></svg>