<svg width="51" height="77" viewBox="0 0 51 77" fill="none" xmlns="http://www.w3.org/2000/svg">
<path opacity="0.1" d="M16.2905 10.4587C16.2905 10.4587 5.01607 21.6266 19.7591 37.6421C19.7591 37.6421 29.3283 44.6212 40.0215 34.6644C40.0215 34.6644 45.6345 26.7907 48.9577 26.8553C48.9577 26.8553 48.8899 36.8993 39.2011 42.9709C39.2011 42.9709 28.4725 50.3892 16.5037 41.5563C16.5037 41.5563 7.71276 35.4137 8.86572 23.5095C8.86249 23.5127 9.52133 15.9329 16.2905 10.4587Z" fill="black"/>
<g opacity="0.2">
<path d="M39.0977 67.1153C34.5343 66.9764 30.1098 65.733 25.5464 66.0108C22.0908 66.2885 18.6319 66.8408 15.1762 67.1153C12.964 67.2542 11.0295 67.6676 8.95285 68.0842C7.01834 68.4976 3.69833 68.3619 2.03833 69.6053C4.25059 72.7864 11.4396 72.5087 14.8985 73.1998C21.1219 74.4432 26.7898 76.5198 33.2877 76.2421C37.8511 76.1032 41.5845 72.9221 45.8701 71.9564C47.2524 71.6787 51.4024 71.4042 49.8813 69.4664C49.0513 68.4976 46.009 68.6364 44.9045 68.4976C42.97 68.2198 40.0666 67.9453 38.5455 67.2542" fill="black"/>
</g>
<path d="M28.86 45.7937C39.9703 45.7937 48.977 36.9099 48.977 25.9512C48.977 14.9924 39.9703 6.10864 28.86 6.10864C17.7496 6.10864 8.74292 14.9924 8.74292 25.9512C8.74292 36.9099 17.7496 45.7937 28.86 45.7937Z" fill="#9CD7FF"/>
<path d="M44.8915 45.3446C40.5477 48.8778 34.9832 51.0028 28.9116 51.0028C15.0373 51.0028 3.79193 39.9092 3.79193 26.2287C3.79193 15.2579 11.0197 5.95345 21.0346 2.69481L20.5696 0.744141C20.5696 0.744141 -12.4754 8.90205 5.63602 43.3326C5.63602 43.3326 14.0717 55.5016 30.3875 54.255C30.3875 54.255 40.0665 53.8416 46.5645 47.4793L44.8915 45.3446Z" fill="#EACC8F"/>
<path d="M27.8912 61.4441C27.8912 61.4441 11.7207 59.7841 9.78296 69.0498C9.78296 69.0498 13.9168 72.5054 27.8912 72.3698C27.8912 72.3698 38.6812 72.092 44.9046 69.3275C44.9046 69.3275 46.4128 60.6174 27.8912 61.4441Z" fill="#EACC8F"/>
<path opacity="0.4" d="M41.0968 64.0019C41.0968 65.4132 35.1834 66.5597 27.891 66.5597C20.5987 66.5597 14.6853 65.4132 14.6853 64.0019C14.6853 62.5906 20.5987 61.4441 27.891 61.4441C35.1867 61.4441 41.0968 62.5906 41.0968 64.0019Z" fill="white"/>
<path d="M21.0348 2.69482L18.3574 4.47755C18.3574 4.47755 -1.498 14.2955 7.1831 37.3869C7.1831 37.3869 16.8363 56.4673 39.6113 48.6485C39.6113 48.6485 25.6886 56.1475 11.9274 44.4855C11.9274 44.4855 1.06305 35.6204 4.45411 20.5318C4.45734 20.535 7.25738 6.99662 21.0348 2.69482Z" fill="#D1AD6D"/>
<path d="M5.63623 43.3328C5.63623 43.3328 14.0719 58.4052 34.3956 54.9463C34.3956 54.9463 44.0747 52.5952 46.5647 47.4795C46.5647 47.4795 39.5436 54.6912 27.3616 54.3359C27.3616 54.3359 14.9019 55.0852 5.63623 43.3328Z" fill="#BC9658"/>
<path opacity="0.4" d="M11.1685 46.5139C11.1685 46.5139 22.782 56.0541 38.959 50.3862C38.959 50.3862 43.1057 48.4807 38.959 51.0224C38.959 51.0224 24.9943 59.0963 11.1685 46.5139Z" fill="white"/>
<path opacity="0.6" d="M1.35061 28.1215C1.35061 28.1215 -1.00052 14.0179 11.1685 6.41228C11.1685 6.41228 12.9674 5.30454 9.78626 8.48567C9.78626 8.48567 2.87174 15.2064 2.18061 25.3957C2.18061 25.399 2.48742 31.4415 1.35061 28.1215Z" fill="white"/>
<path opacity="0.4" d="M19.6978 54.1194C19.6978 54.1194 26.5864 55.8149 35.2288 54.3454C35.2256 54.3454 28.0171 57.0971 19.6978 54.1194Z" fill="black"/>
<path opacity="0.3" d="M33.152 63.453C33.152 63.721 30.7363 63.9374 27.7586 63.9374C24.781 63.9374 22.3652 63.721 22.3652 63.453C22.3652 63.1849 24.781 62.9685 27.7586 62.9685C30.7395 62.9653 33.152 63.1849 33.152 63.453Z" fill="black"/>
<path opacity="0.6" d="M13.1028 65.1096C13.1028 65.1096 12.5054 67.2541 27.7361 67.8741C27.7361 67.8741 36.1911 67.8031 39.889 66.2852C39.889 66.2852 26.2601 71.1231 13.5841 67.0441C13.5841 67.0441 12.2696 66.2852 11.4396 68.1519C11.4396 68.1519 11.6463 68.8624 10.6807 68.6815C10.6839 68.6815 10.8841 65.8976 13.1028 65.1096Z" fill="white"/>
<path opacity="0.2" d="M14.1687 70.9262C14.1687 70.9262 31.4243 73.9588 43.729 67.5965C43.729 67.5965 44.3652 66.45 42.111 64.0149C42.111 64.0149 45.1113 65.9365 44.9046 69.3243C44.9046 69.3275 31.4243 74.8566 14.1687 70.9262Z" fill="black"/>
<path opacity="0.2" d="M36.8177 43.6784C36.8177 43.6784 41.4489 42.0184 43.6612 38.7016C43.6612 38.7016 43.7258 37.1126 39.2012 40.5683C39.2012 40.5683 33.0262 45.2964 36.8177 43.6784Z" fill="black"/>
<path d="M41.7266 10.9788C43.4059 12.8616 41.5877 14.851 43.5254 16.6467C44.9077 17.7512 46.8454 18.8589 47.5366 20.6578C48.5054 22.7312 47.1232 24.3912 46.8454 26.4646C46.5677 27.9857 47.1232 29.5068 47.1232 31.028C44.6332 29.7846 42.0075 28.2635 40.8998 25.6346C39.9309 23.1446 40.4864 20.7967 37.583 19.5501C35.2319 18.5812 33.0196 19.1367 32.3285 15.8167C32.0508 14.0178 32.0507 11.2533 33.1585 9.59327L34.502 7.17432C34.4988 7.17755 39.4432 8.4177 41.7266 10.9788Z" fill="#6DBF3D"/>
<path d="M9.23382 29.5068C8.83658 26.0286 11.1683 24.53 14.3495 24.2523C17.114 23.9746 18.774 22.7312 21.5385 23.0089L22.1618 22.9702C24.5129 20.2056 24.1674 14.9899 29.0053 15.8199C28.8664 18.0321 28.3142 18.8621 29.5575 21.0744C30.5264 22.7344 31.4921 24.1167 31.4921 26.0512C31.4921 27.9857 30.9398 30.0623 29.4187 31.3057C27.6198 32.9657 24.9942 32.5491 23.1953 33.9313C21.5353 35.1747 21.1219 37.387 18.7708 38.0781C18.0796 38.217 14.0685 38.9081 13.9329 38.9081C13.9329 38.9081 9.8539 34.968 9.23382 29.5068Z" fill="#6DBF3D"/>
<path d="M23.0597 44.7149C19.814 42.8934 25.8242 41.5338 29.0053 40.5682C30.3876 40.1548 31.0787 39.3248 32.1865 40.4293C32.8776 41.2593 33.0165 43.7493 32.8776 44.7149L32.9261 45.1122C32.9261 45.1122 26.9998 46.9272 23.0597 44.7149Z" fill="#6DBF3D"/>
<path opacity="0.2" d="M9.25978 21.4587C9.25978 21.4587 6.95063 40.4293 25.201 43.6782C25.201 43.6782 32.2511 44.8538 36.8145 40.7038C36.8145 40.7038 44.7496 28.4637 48.7672 28.8125C48.7672 28.8125 48.0309 39.1536 36.4754 44.3177C36.4754 44.3177 25.5207 49.8177 14.8502 40.1903C14.8534 40.1935 6.68581 33.4146 9.25978 21.4587Z" fill="black"/>
<path opacity="0.6" d="M23.389 8.14334C23.389 8.14334 37.7154 3.92552 45.3211 18.0097C45.3211 18.0097 46.7744 21.5558 42.97 20.0346C42.97 20.0346 39.9245 18.4457 39.201 15.3324C39.201 15.3324 37.3699 11.6345 28.8599 9.80334C28.8599 9.80334 24.3741 8.90552 20.6407 10.0811C20.6407 10.0811 18.2217 10.8336 21.3996 9.07669L23.389 8.14334Z" fill="white"/>
<path d="M24.7197 63.2431C24.7197 63.2431 25.8275 59.0769 25.8275 54.9463C25.8275 54.9463 28.0268 54.9463 29.5544 54.9463C29.5544 54.9463 29.2831 61.7219 30.8042 63.2431C30.801 63.2431 28.3207 64.8062 24.7197 63.2431Z" fill="#D8B77C"/>
<path opacity="0.1" d="M26.5282 63.8049C26.5282 63.8049 28.9374 63.7274 28.6597 62.274C28.6597 62.274 27.6521 59.1833 27.3614 55.4403L25.6885 55.2239V54.8137L29.5543 54.9203C29.5543 54.9203 29.1441 61.4473 30.8041 63.2429C30.8009 63.2429 28.7533 64.5057 26.5282 63.8049Z" fill="black"/>
<path d="M44.3233 45.7936L41.1744 41.1204C41.1744 41.1204 40.2476 40.9815 39.2012 42.2249L42.3016 47.1952C42.2983 47.1952 43.7549 46.2392 44.3233 45.7936Z" fill="#D8B77C"/>
<path opacity="0.1" d="M39.2012 42.2249C39.2012 42.2249 42.0109 46.2489 44.3233 45.7935C44.3233 45.7935 43.5999 46.4395 42.3016 47.1952L39.2012 42.2249Z" fill="black"/>
<path opacity="0.4" d="M40.8029 41.5628L43.3156 44.9926C43.3156 44.9926 42.1206 44.1755 40.6092 42.0601C40.6092 42.0601 40.0601 41.4465 40.8029 41.5628Z" fill="white"/>
<path opacity="0.2" d="M44.3233 45.7934C44.3233 45.7934 42.87 46.8527 42.3016 47.1951L41.9883 46.6912L43.9842 45.2864L44.3233 45.7934Z" fill="black"/>
<path d="M19.9722 8.14643L17.8956 4.72953C17.8956 4.72953 16.8492 4.70693 16.2905 5.73393L18.2799 9.07331L19.9722 8.14643Z" fill="#D8B77C"/>
<path opacity="0.1" d="M16.2905 5.73413C16.2905 5.73413 18.3671 8.84099 19.9722 8.14663L18.2799 9.07351L16.2905 5.73413Z" fill="black"/>
<path opacity="0.4" d="M17.8054 5.30779C17.8054 5.30779 20.5021 9.95838 17.5277 5.7341C17.5277 5.7341 17.2402 5.10756 17.8054 5.30779Z" fill="white"/>
<path opacity="0.2" d="M18.2832 9.07343L19.9723 8.14654L19.5847 7.50708L18.0281 8.65035L18.2832 9.07343Z" fill="black"/>
<g opacity="0.3">
<path d="M13.1964 19.0883C13.1964 24.6206 14.3946 29.5974 18.2669 33.8378C21.771 37.526 28.96 41.2109 33.4782 37.4323C39.1009 32.6396 30.8041 28.5833 26.5637 27.847C21.0346 26.9265 16.4228 26.2806 14.3946 20.2897C14.1169 19.5534 14.3946 18.4457 13.2869 18.3552C13.1028 18.633 13.1028 18.8171 13.1028 19.1852" fill="white"/>
</g>
</svg>
