<svg xmlns="http://www.w3.org/2000/svg" width="52" height="52" fill="none"><mask id="a" width="52" height="52" x="0" y="0" maskUnits="userSpaceOnUse" style="mask-type:alpha"><path fill="#D9D9D9" d="M0 0h52v52H0z"/></mask><g mask="url(#a)"><path fill="#081646" d="M16.183 40.312 19.05 43.2c.3.296.45.667.45 1.112 0 .445-.161.828-.483 1.15-.3.314-.681.468-1.142.46-.461-.006-.842-.16-1.142-.46l-5.404-5.404c-.391-.392-.587-.849-.587-1.37 0-.523.196-.98.587-1.372l5.404-5.383c.3-.3.672-.453 1.115-.46a1.63 1.63 0 0 1 1.169.455c.336.34.503.728.503 1.163 0 .437-.167.823-.503 1.159l-2.834 2.812h19.613l-2.846-2.846a1.55 1.55 0 0 1-.46-1.114c-.007-.443.159-.834.498-1.174.31-.31.69-.466 1.137-.466.447 0 .828.157 1.142.471l5.383 5.383c.392.392.587.85.587 1.371 0 .523-.195.98-.587 1.371l-5.404 5.404c-.3.3-.672.454-1.115.46a1.63 1.63 0 0 1-1.169-.455c-.336-.34-.504-.727-.504-1.163 0-.436.168-.822.505-1.158l2.833-2.834H16.183Zm-2.642-14.854a1.57 1.57 0 0 1-1.158-.467 1.572 1.572 0 0 1-.466-1.158V7.042c0-.46.155-.847.467-1.158a1.573 1.573 0 0 1 1.158-.468c.46 0 .847.156 1.158.468.31.311.467.697.467 1.157v16.792c0 .46-.156.846-.468 1.158a1.573 1.573 0 0 1-1.158.467Zm12.458 0a1.57 1.57 0 0 1-1.157-.467 1.572 1.572 0 0 1-.467-1.158V7.042c0-.46.156-.847.467-1.158a1.573 1.573 0 0 1 1.159-.468c.46 0 .846.156 1.157.468.311.311.467.697.467 1.157v16.792c0 .46-.156.846-.468 1.158a1.572 1.572 0 0 1-1.158.467Zm12.459 0a1.57 1.57 0 0 1-1.158-.467 1.572 1.572 0 0 1-.467-1.158V7.042c0-.46.156-.847.468-1.158a1.573 1.573 0 0 1 1.158-.468c.46 0 .846.156 1.157.468.312.311.467.697.467 1.157v16.792c0 .46-.156.846-.467 1.158a1.573 1.573 0 0 1-1.158.467Z"/></g></svg>