<svg xmlns="http://www.w3.org/2000/svg" width="52" height="52" fill="none"><mask id="a" width="52" height="52" x="0" y="0" maskUnits="userSpaceOnUse" style="mask-type:alpha"><path fill="#D9D9D9" d="M0 0h52v52H0z"/></mask><g mask="url(#a)"><path fill="#081646" d="M35.417 43.333c-2.183 0-4.052-.776-5.606-2.329-1.554-1.553-2.331-3.42-2.331-5.6 0-2.18.776-4.046 2.329-5.598 1.552-1.551 3.419-2.327 5.6-2.327 2.18 0 4.046.776 5.598 2.326 1.55 1.55 2.327 3.414 2.327 5.59a7.605 7.605 0 0 1-1.33 4.338l5.208 5.196c.162.136.283.305.363.508.08.203.121.407.121.613 0 .205-.04.405-.12.6a1.74 1.74 0 0 1-.364.542 1.624 1.624 0 0 1-1.743.327 2.177 2.177 0 0 1-.54-.327l-5.208-5.154a7.323 7.323 0 0 1-2.023.966 7.82 7.82 0 0 1-2.281.33Zm-23.167.021c-2.177 0-4.04-.776-5.591-2.327-1.55-1.551-2.325-3.428-2.325-5.631 0-2.177.775-4.041 2.325-5.591 1.55-1.55 3.414-2.326 5.591-2.326 2.203 0 4.08.776 5.632 2.326 1.551 1.55 2.327 3.414 2.327 5.59 0 2.204-.776 4.08-2.327 5.632-1.552 1.551-3.43 2.327-5.632 2.327Zm0-3.25c1.317 0 2.431-.456 3.342-1.367.911-.91 1.367-2.025 1.367-3.341 0-1.284-.456-2.382-1.367-3.296-.911-.914-2.025-1.37-3.342-1.37-1.283 0-2.382.456-3.296 1.37-.914.914-1.37 2.012-1.37 3.296 0 1.316.456 2.43 1.37 3.341.914.911 2.013 1.367 3.296 1.367Zm23.167 0c1.283 0 2.382-.456 3.295-1.367.914-.91 1.371-2.025 1.371-3.341 0-1.284-.456-2.382-1.37-3.296-.914-.914-2.013-1.37-3.296-1.37-1.317 0-2.431.456-3.342 1.37-.911.914-1.367 2.012-1.367 3.296 0 1.316.456 2.43 1.367 3.341s2.025 1.367 3.342 1.367ZM12.25 20.229c-2.177 0-4.04-.776-5.591-2.327-1.55-1.551-2.325-3.428-2.325-5.631 0-2.177.775-4.04 2.325-5.591 1.55-1.55 3.414-2.326 5.591-2.326 2.203 0 4.08.776 5.632 2.326 1.551 1.55 2.327 3.414 2.327 5.59 0 2.204-.776 4.08-2.327 5.632-1.552 1.551-3.43 2.327-5.632 2.327Zm23.167 0c-2.203 0-4.08-.776-5.632-2.327-1.551-1.551-2.327-3.428-2.327-5.631 0-2.177.776-4.04 2.327-5.591 1.552-1.55 3.43-2.326 5.632-2.326 2.177 0 4.04.776 5.591 2.326 1.55 1.55 2.325 3.414 2.325 5.59 0 2.204-.775 4.08-2.325 5.632-1.55 1.551-3.414 2.327-5.591 2.327ZM12.25 16.98c1.317 0 2.431-.455 3.342-1.366.911-.912 1.367-2.025 1.367-3.342 0-1.283-.456-2.382-1.367-3.296-.911-.914-2.025-1.371-3.342-1.371-1.283 0-2.382.457-3.296 1.37-.914.915-1.37 2.014-1.37 3.297 0 1.317.456 2.43 1.37 3.341.914.912 2.013 1.367 3.296 1.367Zm23.167 0c1.283 0 2.382-.455 3.295-1.366.914-.912 1.371-2.025 1.371-3.342 0-1.283-.456-2.382-1.37-3.296-.914-.914-2.013-1.371-3.296-1.371-1.317 0-2.431.457-3.342 1.37-.911.915-1.367 2.014-1.367 3.297 0 1.317.456 2.43 1.367 3.341.911.912 2.025 1.367 3.342 1.367Z"/></g></svg>