<svg xmlns="http://www.w3.org/2000/svg" width="52" height="52" fill="none"><mask id="a" width="52" height="52" x="0" y="0" maskUnits="userSpaceOnUse" style="mask-type:alpha"><path fill="#D9D9D9" d="M0 0h52v52H0z"/></mask><g mask="url(#a)"><path fill="#081646" d="M15.167 42.792c-1.583 0-2.938-.535-4.064-1.605-1.127-1.072-1.736-2.406-1.827-4.003a7.331 7.331 0 0 1-3.01-2.817 7.72 7.72 0 0 1-1.098-4.033c0-1.802.54-3.39 1.62-4.764s2.493-2.294 4.238-2.76l-4.233-4.234-.984.983a1.652 1.652 0 0 1-1.162.492 1.51 1.51 0 0 1-1.163-.45 1.511 1.511 0 0 1-.45-1.162c.014-.462.178-.849.492-1.163l4.25-4.25a1.653 1.653 0 0 1 1.162-.492c.461-.014.849.136 1.163.45.313.314.463.702.45 1.163-.014.46-.178.848-.492 1.162l-.983.984 3.742 3.741 1.9-5.591a5.565 5.565 0 0 1 2.012-2.786 5.314 5.314 0 0 1 3.246-1.072h11.966c1.2 0 2.282.357 3.246 1.072a5.566 5.566 0 0 1 2.013 2.786l2.758 8.191c1.975.245 3.614 1.096 4.919 2.552 1.304 1.457 1.956 3.173 1.956 5.148a7.72 7.72 0 0 1-1.098 4.033 7.331 7.331 0 0 1-3.01 2.817c-.092 1.597-.701 2.931-1.827 4.003-1.127 1.07-2.482 1.605-4.065 1.605-1.386 0-2.609-.435-3.669-1.306a5.742 5.742 0 0 1-2.023-3.319H20.86a5.742 5.742 0 0 1-2.023 3.319c-1.06.871-2.283 1.306-3.669 1.306Zm.284-20.29h8.883v-8.667h-4.358c-.497 0-.94.149-1.33.447a2.57 2.57 0 0 0-.854 1.194L15.451 22.5Zm12.133 0h8.883l-2.341-7.026a2.57 2.57 0 0 0-.854-1.194 2.125 2.125 0 0 0-1.33-.447h-4.358V22.5Zm-6.808 12.416h10.45a5.911 5.911 0 0 1 2.158-2.924 5.722 5.722 0 0 1 3.45-1.118c1.056 0 2.032.256 2.93.768a6.29 6.29 0 0 1 2.195 2.09 4.37 4.37 0 0 0 1.192-1.514 4.286 4.286 0 0 0 .433-1.886c0-1.26-.448-2.34-1.346-3.237-.897-.898-1.976-1.346-3.237-1.346H13c-1.261 0-2.34.448-3.238 1.346-.897.897-1.346 1.976-1.346 3.237 0 .659.145 1.287.433 1.886a4.373 4.373 0 0 0 1.193 1.514 5.939 5.939 0 0 1 2.185-2.1 5.924 5.924 0 0 1 2.94-.758 5.73 5.73 0 0 1 3.45 1.118 5.91 5.91 0 0 1 2.158 2.924Zm-5.609 4.624a2.61 2.61 0 0 0 1.919-.79 2.61 2.61 0 0 0 .79-1.918 2.61 2.61 0 0 0-.79-1.918 2.611 2.611 0 0 0-1.919-.79c-.752 0-1.392.263-1.918.79a2.61 2.61 0 0 0-.79 1.918c0 .753.263 1.393.79 1.919a2.61 2.61 0 0 0 1.918.79Zm21.667 0a2.61 2.61 0 0 0 1.919-.79 2.61 2.61 0 0 0 .79-1.918 2.61 2.61 0 0 0-.79-1.918 2.61 2.61 0 0 0-1.919-.79 2.61 2.61 0 0 0-1.919.79 2.61 2.61 0 0 0-.79 1.918c0 .753.264 1.393.79 1.919a2.61 2.61 0 0 0 1.92.79Z"/></g></svg>