<svg xmlns="http://www.w3.org/2000/svg" width="52" height="52" fill="none"><mask id="a" width="52" height="52" x="0" y="0" maskUnits="userSpaceOnUse" style="mask-type:alpha"><path fill="#D9D9D9" d="M0 0h52v52H0z"/></mask><g mask="url(#a)"><path fill="#081646" d="M17.58 42a3.131 3.131 0 0 1-2.295-.955 3.13 3.13 0 0 1-.954-2.296v-3.458c0-.555.187-1.02.562-1.395.376-.375.841-.563 1.396-.563h4.291v-5.959a10.769 10.769 0 0 1-3.493-.343 7.35 7.35 0 0 1-3.102-1.644 2.335 2.335 0 0 1-.485-.664 1.774 1.774 0 0 1-.178-.782v-1.858h-1.967a1.95 1.95 0 0 1-1.402-.585L5.426 16.97c-.403-.403-.594-.872-.573-1.408.021-.536.241-.993.66-1.37 1.048-.895 2.352-1.555 3.913-1.98 1.561-.425 3.04-.637 4.438-.637 1.182 0 2.33.134 3.446.404a12.16 12.16 0 0 1 3.27 1.333v-.396c0-.86.3-1.588.897-2.186.598-.598 1.327-.897 2.186-.897h16.844c1.074 0 1.993.383 2.759 1.15.765.768 1.148 1.69 1.148 2.767v22.833c0 1.514-.525 2.795-1.573 3.843C41.792 41.475 40.51 42 38.997 42H17.581Zm6.25-8.667h11.084c.53 0 .982.187 1.356.56.373.374.56.826.56 1.357v1.333c0 .614.208 1.128.623 1.543.415.416.93.623 1.544.623s1.129-.207 1.544-.623c.415-.415.623-.93.623-1.543V13.75a.65.65 0 0 0-.188-.48.65.65 0 0 0-.48-.187H24.498a.65.65 0 0 0-.48.187.65.65 0 0 0-.187.48v1.716L35.84 27.475c.248.243.4.52.455.83.055.31.014.616-.122.917a1.761 1.761 0 0 1-.572.719c-.245.178-.558.267-.939.267-.218 0-.428-.047-.631-.141a1.76 1.76 0 0 1-.508-.342l-5.9-5.9-.83.829c-.463.464-.937.866-1.42 1.208-.483.342-.997.62-1.542.837v6.634Zm-11.908-14.5h2.692c.555 0 1.02.188 1.395.563.375.375.563.84.563 1.395v2.492c.586.372 1.156.627 1.708.762a6.917 6.917 0 0 0 1.659.204c.908 0 1.731-.147 2.468-.441.738-.294 1.445-.78 2.123-1.458l.809-.809-3.409-3.408c-1.103-1.103-2.339-1.93-3.708-2.481a11.557 11.557 0 0 0-4.358-.827c-.89 0-1.746.095-2.569.287a12.3 12.3 0 0 0-2.315.78l2.942 2.94Zm21.658 17.75h-16v2.166h16.492a3.415 3.415 0 0 1-.379-1.015 5.71 5.71 0 0 1-.113-1.151Z"/></g></svg>