<svg xmlns="http://www.w3.org/2000/svg" width="52" height="52" fill="none"><mask id="a" width="52" height="52" x="0" y="0" maskUnits="userSpaceOnUse" style="mask-type:alpha"><path fill="#D9D9D9" d="M0 0h52v52H0z"/></mask><g mask="url(#a)"><path fill="#081646" d="M12.458 35.209v-13c0-.46.156-.846.468-1.158a1.573 1.573 0 0 1 1.158-.467c.46 0 .847.156 1.158.467.31.312.466.698.466 1.158v13c0 .46-.155.846-.467 1.158a1.573 1.573 0 0 1-1.158.467 1.57 1.57 0 0 1-1.158-.467 1.573 1.573 0 0 1-.467-1.158Zm11.917 0v-13c0-.46.156-.846.467-1.158a1.574 1.574 0 0 1 1.159-.467c.46 0 .846.156 1.157.467.311.312.467.698.467 1.158v13c0 .46-.156.846-.468 1.158a1.574 1.574 0 0 1-1.158.467 1.57 1.57 0 0 1-1.157-.467 1.573 1.573 0 0 1-.467-1.158Zm-16.75 9.208a1.57 1.57 0 0 1-1.158-.467A1.573 1.573 0 0 1 6 42.792c0-.461.156-.847.467-1.158a1.572 1.572 0 0 1 1.158-.467h36.75c.46 0 .846.156 1.157.468.312.311.468.697.468 1.158 0 .46-.156.846-.468 1.157a1.572 1.572 0 0 1-1.157.467H7.625Zm28.667-9.208v-13c0-.46.155-.846.467-1.158a1.574 1.574 0 0 1 1.158-.467c.46 0 .847.156 1.158.467.311.312.467.698.467 1.158v13c0 .46-.156.846-.468 1.158a1.574 1.574 0 0 1-1.158.467c-.46 0-.847-.156-1.158-.467a1.575 1.575 0 0 1-.466-1.158Zm8.166-18.958H7.388a1.34 1.34 0 0 1-.983-.405 1.333 1.333 0 0 1-.405-.98v-.846c0-.282.07-.526.212-.73.141-.204.328-.37.559-.498l17.508-8.566a3.903 3.903 0 0 1 1.718-.392c.605 0 1.18.13 1.724.392l17.42 8.512A1.543 1.543 0 0 1 46 14.127v.587c0 .444-.145.81-.436 1.101-.29.29-.659.436-1.106.436ZM13.683 13h24.634L26.292 7.167A.734.734 0 0 0 26 7.105a.735.735 0 0 0-.292.062l-12.025 5.834Z"/></g></svg>