<svg xmlns="http://www.w3.org/2000/svg" width="52" height="52" fill="none"><mask id="a" width="52" height="52" x="0" y="0" maskUnits="userSpaceOnUse" style="mask-type:alpha"><path fill="#D9D9D9" d="M0 0h52v52H0z"/></mask><g mask="url(#a)"><path fill="#081646" d="M32.232 24.97c-.782 0-1.443-.27-1.985-.81-.543-.538-.814-1.198-.814-1.98 0-.78.27-1.442.808-1.985.54-.542 1.2-.814 1.981-.814.78 0 1.443.27 1.985.81.543.539.814 1.199.814 1.98 0 .78-.27 1.443-.81 1.985-.539.543-1.199.814-1.98.814Zm-12.452 0c-.78 0-1.442-.27-1.985-.81-.542-.538-.814-1.198-.814-1.98 0-.78.27-1.442.81-1.985.539-.542 1.199-.814 1.98-.814.781 0 1.443.27 1.985.81.542.539.814 1.199.814 1.98 0 .78-.27 1.443-.81 1.985-.538.543-1.199.814-1.98.814Zm6.221 12.794c-2.304 0-4.4-.607-6.289-1.821a12.096 12.096 0 0 1-4.348-4.846h21.274a12.097 12.097 0 0 1-4.348 4.846c-1.889 1.214-3.985 1.82-6.289 1.82Zm.001 9.902c-3.007 0-5.824-.569-8.451-1.706-2.628-1.137-4.919-2.683-6.873-4.637-1.955-1.955-3.5-4.245-4.638-6.871C4.903 31.825 4.334 29.008 4.334 26s.57-5.825 1.706-8.452c1.138-2.628 2.683-4.919 4.638-6.873 1.954-1.954 4.244-3.5 6.87-4.638C20.176 4.901 22.993 4.333 26 4.333c3.007 0 5.825.568 8.452 1.705 2.627 1.138 4.918 2.684 6.873 4.638 1.954 1.954 3.5 4.244 4.637 6.87 1.137 2.627 1.706 5.445 1.706 8.452 0 3.007-.569 5.825-1.706 8.452s-2.683 4.918-4.637 6.873c-1.955 1.954-4.245 3.5-6.871 4.637-2.627 1.137-5.444 1.706-8.452 1.706Zm0-3.824c4.927 0 9.133-1.742 12.617-5.225 3.483-3.484 5.225-7.69 5.225-12.618s-1.742-9.134-5.225-12.617C35.135 9.898 30.929 8.155 26 8.155c-.358 0-.717.008-1.075.024a5.234 5.234 0 0 0-1.042.153c-.19.287-.31.563-.363.828a4.717 4.717 0 0 0-.078.907c0 .99.348 1.834 1.046 2.532.697.697 1.544 1.046 2.54 1.046.425 0 .786-.064 1.08-.191.294-.128.611-.191.951-.191.398 0 .729.152.994.457.266.305.398.66.398 1.066 0 .779-.391 1.29-1.174 1.533a7.576 7.576 0 0 1-2.257.366c-1.814 0-3.37-.65-4.67-1.949-1.299-1.3-1.948-2.856-1.948-4.67v-.45c0-.141.03-.33.088-.564-3.607 1.177-6.565 3.293-8.872 6.35-2.306 3.06-3.46 6.591-3.46 10.598 0 4.928 1.742 9.134 5.226 12.618C16.866 42.1 21.072 43.842 26 43.842Z"/></g></svg>